# xmcd
#
# Track frame offsets: 
#        150
#        18311
#        36103
#        60016
#        76644
#        91141
#        104937
#        120050
#        138754
#        159063
#        176449
#        190129
#
# Disc length: 3086 seconds
#
# Revision: 1
# Processed by: cddbd v1.5.2PL0 Copyright (c) Steve Scherf et al.
# Submitted via: ExactAudioCopy v1.0b3
#
DISCID=790c0c0c
DTITLE=Amos Lee - Missioin Bell
DYEAR=2010
DGENRE=Blues
TTITLE0=El Camino
TTITLE1=Windows Are Rolled Down
TTITLE2=Violin
TTITLE3=Flower
TTITLE4=Stay With Me
TTITLE5=Out Of The Cold
TTITLE6=Jesus
TTITLE7=Hello Again
TTITLE8=Learned A Lot
TTITLE9=Cup Of Soorow
TTITLE10=Clear Blue Eyes
TTITLE11=Behind Me Now-El Camino Reprise
EXTD=
EXTT0=
EXTT1=
EXTT2=
EXTT3=
EXTT4=
EXTT5=
EXTT6=
EXTT7=
EXTT8=
EXTT9=
EXTT10=
EXTT11=
PLAYORDER=
